<mxfile host="app.diagrams.net" modified="2023-07-09T10:48:30.395Z" agent="Mozilla/5.0 (Windows NT 10.0; Win64; x64) AppleWebKit/537.36 (KHTML, like Gecko) Chrome/114.0.0.0 Safari/537.36" version="21.6.1" etag="CrOuJ4Sy0Dec2hLbgy_K" type="github">
  <diagram name="第 1 页" id="B0S4sWDJ5THNqiTK3_nA">
    <mxGraphModel>
      <root>
        <mxCell id="0" />
        <mxCell id="1" parent="0" />
      </root>
    </mxGraphModel>
  </diagram>
</mxfile>
